HIERARCHY
ROOT Hips
{
	OFFSET -326.860107 92.272324 374.819611
	CHANNELS 6 Xposition Yposition Zposition Zrotation Yrotation Xrotation 
	JOINT LeftUpLeg
	{
		OFFSET 0.103460 1.857825 10.548519
		CHANNELS 3 Zrotation Yrotation Xrotation
		JOINT LeftLeg
		{
			OFFSET 43.500008 -0.000019 0.000016
			CHANNELS 3 Zrotation Yrotation Xrotation
			JOINT LeftFoot
			{
				OFFSET 42.372192 0.000004 0.000011
				CHANNELS 3 Zrotation Yrotation Xrotation
				JOINT LeftToe
				{
					OFFSET 17.300001 0.000001 -0.000016
					CHANNELS 3 Zrotation Yrotation Xrotation
					End Site
					{
						OFFSET 0.000000 0.000000 0.000000
					}
				}
			}
		}
	}
	JOINT RightUpLeg
	{
		OFFSET 0.103460 1.857824 -10.548484
		CHANNELS 3 Zrotation Yrotation Xrotation
		JOINT RightLeg
		{
			OFFSET 43.500046 -0.000008 0.000031
			CHANNELS 3 Zrotation Yrotation Xrotation
			JOINT RightFoot
			{
				OFFSET 42.372261 0.000000 0.000010
				CHANNELS 3 Zrotation Yrotation Xrotation
				JOINT RightToe
				{
					OFFSET 17.299986 -0.000007 0.000010
					CHANNELS 3 Zrotation Yrotation Xrotation
					End Site
					{
						OFFSET 0.000000 0.000000 0.000000
					}
				}
			}
		}
	}
	JOINT Spine
	{
		OFFSET 6.901969 -2.603749 -0.000000
		CHANNELS 3 Zrotation Yrotation Xrotation
		JOINT Spine1
		{
			OFFSET 12.588099 0.000014 -0.000003
			CHANNELS 3 Zrotation Yrotation Xrotation
			JOINT Spine2
			{
				OFFSET 12.343207 0.000019 0.000011
				CHANNELS 3 Zrotation Yrotation Xrotation
				JOINT Neck
				{
					OFFSET 25.832890 -0.000025 -0.000002
					CHANNELS 3 Zrotation Yrotation Xrotation
					JOINT Head
					{
						OFFSET 11.766609 0.000013 -0.000004
						CHANNELS 3 Zrotation Yrotation Xrotation
						End Site
						{
							OFFSET 0.000000 0.000000 0.000000
						}
					}
				}
				JOINT LeftShoulder
				{
					OFFSET 19.745899 -1.480392 6.000105
					CHANNELS 3 Zrotation Yrotation Xrotation
					JOINT LeftArm
					{
						OFFSET 11.284097 -0.000017 -0.000023
						CHANNELS 3 Zrotation Yrotation Xrotation
						JOINT LeftForeArm
						{
							OFFSET 33.000065 -0.000020 0.000044
							CHANNELS 3 Zrotation Yrotation Xrotation
							JOINT LeftHand
							{
								OFFSET 25.200005 0.000023 0.000007
								CHANNELS 3 Zrotation Yrotation Xrotation
								End Site
								{
									OFFSET 0.000000 0.000000 0.000000
								}
							}
						}
					}
				}
				JOINT RightShoulder
				{
					OFFSET 19.746096 -1.480391 -6.000090
					CHANNELS 3 Zrotation Yrotation Xrotation
					JOINT RightArm
					{
						OFFSET 11.284126 -0.000026 -0.000012
						CHANNELS 3 Zrotation Yrotation Xrotation
						JOINT RightForeArm
						{
							OFFSET 33.000092 0.000010 0.000014
							CHANNELS 3 Zrotation Yrotation Xrotation
							JOINT RightHand
							{
								OFFSET 25.199760 0.000151 0.000418
								CHANNELS 3 Zrotation Yrotation Xrotation
								End Site
								{
									OFFSET 0.000000 0.000000 0.000000
								}
							}
						}
					}
				}
			}
		}
	}
}
MOTION
Frames: 7
Frame Time: 0.033333
-326.860107 92.272324 374.819611 89.556894 -0.717880 128.783900 169.225272 -2.694106 165.794769 -23.492258 2.002313 -2.123636 83.859922 0.889052 -2.637563 21.454553 0.003088 -0.000000 167.894724 -0.600003 -172.728490 -23.715378 -3.570131 1.355923 87.061361 -0.453131 2.481166 21.454558 -0.003102 -0.000017 6.001268 0.024712 -0.315146 1.989564 0.050417 -0.608120 1.671482 0.046885 -0.608445 7.366401 4.202579 -3.751778 -26.240178 0.296765 -3.431838 -74.139982 -83.124966 -108.271394 5.953070 30.409314 -34.172888 -70.920026 -20.919802 2.950335 3.294483 -13.116098 24.136377 -132.647301 86.179406 49.240855 1.771638 -23.942992 34.127511 -61.419103 14.040273 -2.129173 -3.939579 11.592220 -13.683676 
-326.870911 92.273613 374.842896 89.548739 -0.717877 128.851396 169.212636 -2.715110 165.807541 -23.503104 2.002313 -2.087695 83.859922 0.864451 -2.637564 21.454550 0.003088 -0.000003 167.906226 -0.616809 -172.707658 -23.711924 -3.570134 1.383854 87.064087 -0.472820 2.478781 21.454558 -0.003116 -0.000019 6.003604 0.024716 -0.315141 1.994202 0.054450 -0.608125 1.676122 0.050916 -0.608441 7.379329 4.271156 -3.780047 -26.247425 0.281533 -3.444520 -74.060759 -83.132159 -108.350030 5.967119 30.412251 -34.099303 -70.908504 -20.901709 2.950341 3.316907 -13.214341 24.169883 -132.702939 86.154879 49.186426 1.812307 -23.978743 34.111935 -61.415593 14.072427 -2.129172 -3.939267 11.578342 -13.694300 
-326.907990 92.277199 374.918213 89.521473 -0.717880 129.068213 169.168145 -2.786407 165.848659 -23.543030 2.002315 -1.971399 83.859908 0.784756 -2.637564 21.454553 0.003090 0.000000 167.940514 -0.674194 -172.648399 -23.703367 -3.572853 1.478121 87.073335 -0.539307 2.470788 21.454555 -0.003110 -0.000019 6.011181 0.031509 -0.315151 2.009336 0.068127 -0.615287 1.691257 0.064550 -0.615682 7.422928 4.495561 -3.870377 -26.283473 0.234260 -3.485156 -73.807857 -83.152779 -108.601285 6.010040 30.428332 -33.906179 -70.848698 -20.889492 2.950347 3.325749 -13.369380 24.140839 -132.895100 86.078688 48.997322 1.957449 -24.090292 34.066924 -61.387083 14.152230 -2.129171 -3.911855 11.506609 -13.669332 
-326.941803 92.279694 374.993591 89.492888 -0.722474 129.280496 169.118530 -2.852999 165.886894 -23.585727 2.002313 -1.857142 83.859929 0.706193 -2.637562 21.454550 0.003079 -0.000002 167.974036 -0.730108 -172.580452 -23.686889 -3.580819 1.567494 87.090629 -0.602576 2.462587 21.454557 -0.003111 -0.000017 6.016715 0.040574 -0.315146 2.020357 0.086373 -0.625060 1.702286 0.082733 -0.625575 7.478733 4.652945 -3.932586 -26.359857 0.234443 -3.529418 -73.701218 -83.163359 -108.707119 6.040571 30.439752 -33.806937 -70.802308 -20.914371 2.950336 3.304286 -13.381061 23.968428 -132.982376 86.026840 48.912402 2.114892 -24.170586 34.035143 -61.352570 14.165836 -2.129171 -3.747103 11.458493 -13.460260 
-326.966797 92.283409 375.065704 89.461080 -0.732530 129.478503 169.070869 -2.909698 165.918778 -23.617952 2.008189 -1.749681 83.856500 0.631948 -2.637564 21.454555 0.003102 0.000002 168.006534 -0.782592 -172.478013 -23.657221 -3.606783 1.630897 87.104986 -0.647028 2.457123 21.454558 -0.003107 -0.000018 6.020014 0.052124 -0.315147 2.026466 0.109547 -0.630429 1.708390 0.105877 -0.631083 7.530980 4.745998 -3.958688 -26.440542 0.266541 -3.560278 -73.721114 -83.165251 -108.687079 6.058760 30.449619 -33.770303 -70.772515 -20.959711 2.950332 3.277253 -13.341040 23.950565 -132.904826 85.992976 48.992066 2.243409 -24.241458 34.052198 -61.376394 14.135606 -2.129175 -3.485956 11.559730 -13.305885 
-326.986298 92.288620 375.134094 89.428992 -0.743051 129.664093 169.029574 -2.960100 165.947628 -23.639295 2.015595 -1.648788 83.850305 0.562194 -2.637561 21.454553 0.003095 0.000001 168.042789 -0.834200 -172.326369 -23.612475 -3.657173 1.660812 87.112772 -0.667401 2.453693 21.454560 -0.003101 -0.000017 6.022541 0.064954 -0.315146 2.031787 0.135216 -0.629137 1.713711 0.131544 -0.629946 7.561847 4.801815 -3.953302 -26.502514 0.286056 -3.556767 -73.825964 -83.165538 -108.582106 6.060562 30.451090 -33.761557 -70.732742 -21.019868 2.950334 3.275720 -13.326131 23.986543 -132.613546 85.967158 49.286406 2.314461 -24.301574 34.133925 -61.427498 14.091492 -2.129177 -3.334030 11.654066 -13.333776 
-327.000793 92.295830 375.200287 89.397286 -0.750668 129.842688 168.998838 -3.007403 165.980331 -23.647614 2.019930 -1.554641 83.840162 0.497410 -2.637567 21.454553 0.003088 -0.000001 168.089712 -0.880908 -172.155369 -23.550291 -3.707074 1.674491 87.112704 -0.677054 2.446731 21.454558 -0.003110 -0.000019 6.024754 0.078178 -0.310512 2.036226 0.161575 -0.619647 1.718143 0.157976 -0.620615 7.584408 4.844872 -3.940440 -26.552936 0.266838 -3.529060 -73.963176 -83.165681 -108.444512 6.051508 30.441282 -33.768595 -70.688196 -21.082566 2.950337 3.226718 -13.273212 24.123381 -132.133725 85.934319 49.770496 2.334982 -24.342473 34.220262 -61.486107 14.070833 -2.129165 -3.318692 11.725618 -13.441030 
